<svg width="1002" height="292" viewBox="0 0 1002 292" fill="none" xmlns="http://www.w3.org/2000/svg">
<path d="M953 142H1002V292H973C961.954 292 953 283.046 953 272V142Z" fill="#47F5AC"/>
<path d="M117 292L219.355 16.2989C222.992 6.50116 232.341 0 242.792 0H287L182.704 292H117Z" fill="#4E99F4"/>
<path d="M170 292L67.645 16.2989C64.0075 6.50116 54.6592 0 44.208 0H0L98.37 275.409C101.924 285.359 111.348 292 121.913 292H170Z" fill="url(#paint0_linear)"/>
<path d="M287 142H317C328.046 142 337 150.954 337 162V292H307C295.954 292 287 283.046 287 272V142Z" fill="#4E99F3"/>
<path fill-rule="evenodd" clip-rule="evenodd" d="M370 142H372H400H470H499H500C511.046 142 520 150.954 520 162V292H519H470V189V178.538C470 173.228 465.523 168.923 460 168.923H421V169H420V292H372H370V142Z" fill="#7CB8FF"/>
<path d="M766.442 43C766.442 40.2386 768.681 38 771.442 38H789.558C792.319 38 794.558 40.2386 794.558 43V118C794.558 120.761 792.319 123 789.558 123H771.442C768.681 123 766.442 120.761 766.442 118V43Z" fill="#E83D47"/>
<path d="M818 66.4423C820.761 66.4423 823 68.6809 823 71.4423V89.5577C823 92.3191 820.761 94.5577 818 94.5577L743 94.5577C740.239 94.5577 738 92.3191 738 89.5577L738 71.4423C738 68.6809 740.239 66.4423 743 66.4423L818 66.4423Z" fill="#E83D47"/>
<path d="M370 142H400C411.046 142 420 150.954 420 162V292H370V142Z" fill="#4E99F3"/>
<path d="M755 140H785C796.046 140 805 148.954 805 160V290H775C763.954 290 755 281.046 755 270V140Z" fill="#18D485"/>
<path fill-rule="evenodd" clip-rule="evenodd" d="M711 142V283H662H613H584C572.954 283 564 274.046 564 263V259.048V253.625V160.077C564 150.093 572.954 142 584 142H711ZM613 253.625V176.346C613 171.354 617.477 167.308 623 167.308H662V263.625C662 258.102 657.523 253.625 652 253.625H613Z" fill="#18D485"/>
<path fill-rule="evenodd" clip-rule="evenodd" d="M1002 142V283H953H904H875C863.954 283 855 274.046 855 263V259.048V253.173V160.077C855 150.093 863.954 142 875 142H1002ZM904 253.173V176.346C904 171.354 908.477 167.308 914 167.308H953V263.173C953 257.65 948.523 253.173 943 253.173H904Z" fill="#18D485"/>
<path d="M662 142H711V292H682C670.954 292 662 283.046 662 272V142Z" fill="#47F5AC"/>
<path d="M564 162C564 150.954 572.954 142 584 142L711 142V150C711 161.046 702.046 170 691 170L564 170V162Z" fill="#18D485"/>
<path d="M855 162C855 150.954 863.954 142 875 142L1002 142V150C1002 161.046 993.046 170 982 170L855 170V162Z" fill="#18D485"/>
<path d="M953 48C953 36.9543 961.954 28 973 28L1002 28V150C1002 161.046 993.046 170 982 170H953V48Z" fill="#18D485"/>
<defs>
<linearGradient id="paint0_linear" x1="38.5" y1="7.5" x2="127" y2="286" gradientUnits="userSpaceOnUse">
<stop offset="0.0122036" stop-color="#3A8EF1"/>
<stop offset="1" stop-color="#1759D8"/>
</linearGradient>
</defs>
</svg>
